<svg width="586" height="57" viewBox="0 0 586 57" fill="none" xmlns="http://www.w3.org/2000/svg">
<g clip-path="url(#clip0_7_81)">
<path d="M16.7591 40.0305C16.4395 39.8531 15.7358 40.048 15.3865 40.144C13.4619 40.6742 11.0158 41.586 9.12291 42.2947C7.85175 42.7702 6.63385 43.3933 5.39855 43.9462C4.52584 42.6588 3.60704 41.4148 2.87774 40.0325C-1.39053 31.935 -0.887595 22.2427 4.24006 14.6826C12.3915 2.6662 29.3396 0.355561 40.3201 9.95916C40.529 10.1417 41.5871 11.0742 41.6558 11.1939C41.7141 11.294 41.7828 11.3703 41.7551 11.4992C40.1828 14.338 39.0233 17.3821 38.2182 20.5334C38.1127 20.946 37.7142 23.1865 37.6067 23.3217C37.4991 23.4568 37.2175 23.4011 37.0474 23.4805C35.892 24.0107 35.0931 26.7608 35.5038 27.9605C34.9517 27.8676 34.4611 27.8089 33.9151 27.6531C30.3208 26.6308 25.0068 21.0863 22.9254 17.9866C22.4183 17.2315 20.9454 14.3886 20.3185 14.1121C19.9078 13.9316 19.6998 14.0667 19.6343 14.5062C19.5196 15.2705 20.5469 17.6379 20.7682 18.6117C20.9567 19.441 21.0376 20.2694 21.1574 21.108C21.3029 21.2462 22.1551 21.9095 22.2903 21.7713L21.7771 17.7493C22.9305 19.963 23.8749 22.4985 25.7719 24.1974C26.8566 25.1692 27.925 25.6591 29.1695 26.3482C29.2361 26.3853 29.4645 26.4266 29.3068 26.5184C25.2557 25.1702 21.3818 22.4964 18.1931 19.6587C17.0571 18.6478 13.5663 14.5949 12.4867 14.369C11.6202 14.1874 11.4552 14.5093 11.5362 15.3262C11.6458 16.4331 14.438 20.2766 15.1601 21.5794C16.6884 24.3377 18.189 27.6108 19.0648 30.6445C19.8135 33.2378 20.3769 36.0178 20.3318 38.7287C20.2858 38.8618 19.1518 39.1836 18.8722 39.3218C18.5608 39.4766 17.9698 39.8335 17.682 40.0315C17.6707 39.9521 17.7281 39.8293 17.6297 39.8242C17.5847 39.8211 16.8052 40.014 16.7601 40.0315L16.7591 40.0305ZM17.9841 31.2645C16.1629 31.8927 14.0396 32.492 12.3177 33.3399C11.867 33.5617 10.8601 34.03 11.1756 34.6665C11.3262 34.9718 12.2747 34.8934 12.6096 34.8707C13.6206 34.8027 14.7689 34.4984 15.7993 34.3694C16.6915 34.258 17.6041 34.2106 18.5014 34.1497C18.6387 34.0115 18.0487 31.6431 17.9852 31.2635L17.9841 31.2645Z" fill="#C19771"/>
<path d="M17.6807 40.0304C16.9094 40.5606 16.0941 41.457 16.0367 42.4576C15.9711 43.615 17.1604 44.1937 18.1263 43.6253C19.0922 43.0569 19.2663 41.1857 19.9075 40.8804C20.6932 40.507 23.1402 40.05 24.1123 39.854C30.2561 38.6203 37.0267 38.3325 43.2063 39.4414C43.5238 39.4981 45.8377 39.9386 45.8459 40.0809C42.7361 45.9834 37.1322 50.4489 30.7108 52.1726C23.1751 54.1965 14.9161 52.4604 8.92497 47.4543C8.66582 47.2377 7.5227 46.2691 7.43768 46.0628C7.36701 45.8905 7.50426 45.9235 7.56777 45.8874C8.76006 45.1901 10.2043 44.5207 11.4652 43.9317C12.0696 43.649 13.9686 43.0249 14.3333 42.7196C14.3988 42.6649 14.6918 41.751 14.9151 41.4518C15.1722 41.1083 16.3788 40.1861 16.7578 40.0304C16.8019 40.0118 17.5824 39.82 17.6274 39.823C17.7268 39.8292 17.6684 39.951 17.6797 40.0304H17.6807Z" fill="#C19771"/>
<path d="M46.358 39.101C45.1494 38.7967 43.9243 38.5161 42.6931 38.3088C41.1638 38.0509 36.5729 37.7796 35.651 36.6336C35.1532 36.0147 36.4162 35.4195 36.8371 35.0285C37.9393 34.0032 38.6604 33.0686 36.5288 32.8076C36.7112 32.5611 37.0195 32.3362 37.1885 32.0804C37.5111 31.5914 37.8543 30.9106 37.6545 30.333C38.8448 30.2628 41.214 29.0415 41.5817 27.8408C41.8306 27.0279 41.3246 25.8705 40.8299 25.2269C40.5728 24.8926 39.7001 24.3387 39.8558 23.9426C40.0586 23.4248 41.8316 21.2957 42.2997 20.7758C43.0659 19.9248 44.2674 18.7653 45.1309 18.0051C45.2395 17.9102 46.0047 17.2985 46.0528 17.3356C46.8548 19.0119 47.5483 20.7407 47.9928 22.5531C48.8747 26.1439 48.9516 30.1411 48.1741 33.7566C47.7767 35.6041 47.116 37.3794 46.358 39.101Z" fill="#C19771"/>
<path d="M41.9964 20.0568C41.4761 20.6386 40.9189 21.3194 40.4231 21.929C40.1588 22.254 39.3373 23.598 39.0352 23.63C38.8252 23.6517 38.3858 23.5155 38.3673 23.269C38.3335 22.8027 38.8457 20.9666 38.9932 20.3869C39.4705 18.5136 40.1271 16.5527 40.9137 14.7908C41.052 14.4813 42.1634 12.0737 42.316 12.0737C42.5618 12.0737 44.0102 14.0171 44.2499 14.3555C44.4517 14.6412 45.6286 16.3917 45.6153 16.563C44.3595 17.6677 43.115 18.8066 41.9964 20.0558V20.0568Z" fill="#C19771"/>
<path d="M21.9826 38.5864L21.4705 34.2539L26.4168 34.585C27.0355 34.9667 27.7884 35.9054 27.3981 36.6646C26.6524 38.116 23.4402 38.5389 21.9816 38.5864H21.9826Z" fill="#C19771"/>
<path d="M35.9091 34.259C36.1785 34.6345 34.2006 36.2592 33.9005 36.5593C33.712 36.7481 33.165 37.5424 32.997 37.563L29.7602 37.6125C29.4919 36.5531 28.8281 35.7073 28.231 34.8202C29.2215 34.6541 30.2447 34.6881 31.2393 34.5499C32.3784 34.391 33.7171 33.8289 34.8264 33.9557C34.9709 33.9722 35.8763 34.2136 35.9091 34.259Z" fill="#C19771"/>
<path d="M20.4863 25.5498C21.7103 26.8846 23.1566 28.0729 24.7504 28.9405L20.5508 30.2299C20.1923 28.7414 19.5644 27.3395 19.0635 25.8985L16.6584 20.7397C18.0054 22.2644 19.1014 24.0376 20.4863 25.5488V25.5498Z" fill="#C19771"/>
<path d="M43.4224 9.15444C43.0444 8.84498 42.7074 8.18583 42.6746 7.68863C42.522 5.38521 45.6267 4.65385 46.5537 6.56942C47.5657 8.65931 45.0336 10.4727 43.4224 9.15444Z" fill="#C19771"/>
<path d="M50.6282 15.3416C50.5371 15.4334 50.2001 15.6366 50.0782 15.6645C47.7438 16.1926 47.6649 12.5059 49.9727 12.9257C51 13.1124 51.3268 14.6381 50.6282 15.3416Z" fill="#C19771"/>
<path d="M36.8361 25.4859C36.9283 25.3662 37.2377 25.8397 37.4272 25.8768C37.7928 25.949 38.1442 25.6932 38.1667 25.3219C38.1841 25.0382 37.9588 24.9175 37.9639 24.6606C40.4847 24.8453 38.7475 28.2917 37.1926 26.8289C36.9478 26.5989 36.6671 25.7066 36.8372 25.4859H36.8361Z" fill="#C19771"/>
</g>
<path d="M78.0504 21.1818H79.7237V31.0597C79.7237 31.9413 79.5618 32.6902 79.2379 33.3065C78.914 33.9227 78.4575 34.3905 77.8682 34.7099C77.279 35.0292 76.584 35.1889 75.7834 35.1889C75.0277 35.1889 74.3552 35.0517 73.766 34.7773C73.1767 34.4985 72.7134 34.1026 72.376 33.5898C72.0387 33.0771 71.87 32.4676 71.87 31.7614H73.5163C73.5163 32.1527 73.613 32.4946 73.8064 32.7869C74.0044 33.0748 74.2742 33.2997 74.6161 33.4616C74.958 33.6236 75.347 33.7045 75.7834 33.7045C76.2647 33.7045 76.674 33.6033 77.0113 33.4009C77.3487 33.1985 77.6051 32.9016 77.7805 32.5103C77.9604 32.1145 78.0504 31.6309 78.0504 31.0597V21.1818ZM89.0124 30.7628V24.6364H90.6047V35H89.0124V33.2457H88.9044C88.6615 33.772 88.2837 34.2196 87.7709 34.5884C87.2581 34.9528 86.6104 35.1349 85.8277 35.1349C85.18 35.1349 84.6042 34.9933 84.1005 34.7099C83.5967 34.422 83.2008 33.9902 82.913 33.4144C82.6251 32.8342 82.4811 32.1032 82.4811 31.2216V24.6364H84.0735V31.1136C84.0735 31.8693 84.2849 32.4721 84.7077 32.9219C85.135 33.3717 85.6793 33.5966 86.3405 33.5966C86.7363 33.5966 87.1389 33.4954 87.5483 33.293C87.9621 33.0906 88.3084 32.7802 88.5873 32.3619C88.8707 31.9435 89.0124 31.4105 89.0124 30.7628ZM97.3244 39.1023C96.5552 39.1023 95.894 39.0033 95.3407 38.8054C94.7875 38.612 94.3264 38.3556 93.9576 38.0362C93.5932 37.7214 93.3031 37.384 93.0872 37.0241L94.3557 36.1335C94.4996 36.3224 94.6818 36.5384 94.9022 36.7812C95.1226 37.0286 95.424 37.2423 95.8063 37.4222C96.1931 37.6067 96.6992 37.6989 97.3244 37.6989C98.1611 37.6989 98.8515 37.4964 99.3958 37.0916C99.9401 36.6868 100.212 36.0526 100.212 35.1889V33.0838H100.077C99.9603 33.2727 99.7939 33.5066 99.578 33.7855C99.3666 34.0599 99.0607 34.305 98.6603 34.521C98.2645 34.7324 97.7292 34.8381 97.0545 34.8381C96.2179 34.8381 95.4667 34.6402 94.801 34.2443C94.1398 33.8485 93.6157 33.2727 93.2289 32.517C92.8465 31.7614 92.6554 30.8437 92.6554 29.7642C92.6554 28.7027 92.842 27.7783 93.2154 26.9911C93.5887 26.1995 94.1083 25.5877 94.774 25.1559C95.4397 24.7196 96.2089 24.5014 97.0815 24.5014C97.7562 24.5014 98.2915 24.6139 98.6873 24.8388C99.0877 25.0592 99.3935 25.3111 99.605 25.5945C99.8209 25.8733 99.9873 26.1027 100.104 26.2827H100.266V24.6364H101.805V35.2969C101.805 36.1875 101.602 36.9117 101.197 37.4695C100.797 38.0317 100.257 38.4433 99.578 38.7042C98.9032 38.9696 98.1521 39.1023 97.3244 39.1023ZM97.2704 33.4077C97.9092 33.4077 98.4489 33.2615 98.8898 32.9691C99.3306 32.6767 99.6657 32.2562 99.8951 31.7074C100.124 31.1586 100.239 30.5019 100.239 29.7372C100.239 28.9905 100.127 28.3316 99.9018 27.7603C99.6769 27.189 99.3441 26.7415 98.9032 26.4176C98.4624 26.0937 97.9182 25.9318 97.2704 25.9318C96.5957 25.9318 96.0335 26.1027 95.5836 26.4446C95.1383 26.7865 94.8032 27.2453 94.5783 27.821C94.3579 28.3968 94.2477 29.0355 94.2477 29.7372C94.2477 30.4569 94.3602 31.0934 94.5851 31.6467C94.8145 32.1954 95.1518 32.6272 95.5971 32.9421C96.0469 33.2525 96.6047 33.4077 97.2704 33.4077ZM107.389 35.2429C106.732 35.2429 106.136 35.1192 105.601 34.8718C105.066 34.6199 104.641 34.2578 104.326 33.7855C104.011 33.3087 103.854 32.733 103.854 32.0582C103.854 31.4645 103.97 30.9832 104.204 30.6143C104.438 30.241 104.751 29.9486 105.142 29.7372C105.534 29.5258 105.965 29.3684 106.438 29.2649C106.914 29.157 107.394 29.0715 107.875 29.0085C108.505 28.9276 109.015 28.8668 109.406 28.8263C109.802 28.7814 110.09 28.7071 110.27 28.6037C110.454 28.5002 110.547 28.3203 110.547 28.0639V28.0099C110.547 27.3442 110.365 26.8269 110 26.4581C109.64 26.0893 109.094 25.9048 108.361 25.9048C107.6 25.9048 107.004 26.0713 106.573 26.4041C106.141 26.737 105.837 27.0923 105.662 27.4702L104.15 26.9304C104.42 26.3007 104.78 25.8104 105.23 25.4595C105.684 25.1042 106.179 24.8568 106.714 24.7173C107.254 24.5734 107.785 24.5014 108.307 24.5014C108.639 24.5014 109.022 24.5419 109.454 24.6229C109.89 24.6993 110.311 24.859 110.715 25.1019C111.125 25.3448 111.464 25.7114 111.734 26.2017C112.004 26.692 112.139 27.3487 112.139 28.1719V35H110.547V33.5966H110.466C110.358 33.8215 110.178 34.0621 109.926 34.3185C109.674 34.5749 109.339 34.7931 108.921 34.973C108.502 35.1529 107.992 35.2429 107.389 35.2429ZM107.632 33.8125C108.262 33.8125 108.792 33.6888 109.224 33.4414C109.661 33.194 109.989 32.8746 110.209 32.4833C110.434 32.092 110.547 31.6804 110.547 31.2486V29.7912C110.479 29.8722 110.331 29.9464 110.101 30.0138C109.876 30.0768 109.616 30.133 109.319 30.1825C109.026 30.2275 108.741 30.268 108.462 30.304C108.187 30.3355 107.965 30.3625 107.794 30.3849C107.38 30.4389 106.993 30.5266 106.633 30.6481C106.278 30.765 105.99 30.9427 105.77 31.1811C105.554 31.415 105.446 31.7344 105.446 32.1392C105.446 32.6925 105.65 33.1108 106.06 33.3942C106.474 33.6731 106.998 33.8125 107.632 33.8125ZM114.665 35V24.6364H116.204V26.2017H116.312C116.501 25.6889 116.842 25.2728 117.337 24.9535C117.832 24.6341 118.39 24.4744 119.011 24.4744C119.127 24.4744 119.274 24.4767 119.449 24.4812C119.625 24.4857 119.757 24.4924 119.847 24.5014V26.1207C119.793 26.1072 119.669 26.087 119.476 26.06C119.287 26.0285 119.087 26.0128 118.876 26.0128C118.372 26.0128 117.922 26.1185 117.526 26.3299C117.135 26.5368 116.824 26.8247 116.595 27.1935C116.37 27.5579 116.258 27.974 116.258 28.4418V35H114.665ZM130.529 35.2159C129.557 35.2159 128.72 34.9865 128.019 34.5277C127.317 34.0689 126.777 33.4369 126.399 32.6317C126.022 31.8266 125.833 30.9067 125.833 29.8722C125.833 28.8196 126.026 27.8907 126.413 27.0856C126.804 26.2759 127.349 25.6439 128.046 25.1896C128.747 24.7308 129.566 24.5014 130.502 24.5014C131.23 24.5014 131.887 24.6364 132.472 24.9062C133.057 25.1761 133.536 25.554 133.909 26.0398C134.282 26.5256 134.514 27.0923 134.604 27.7401H133.012C132.89 27.2678 132.62 26.8494 132.202 26.4851C131.788 26.1162 131.23 25.9318 130.529 25.9318C129.908 25.9318 129.364 26.0937 128.896 26.4176C128.433 26.737 128.07 27.189 127.81 27.7738C127.553 28.354 127.425 29.0355 127.425 29.8182C127.425 30.6188 127.551 31.3161 127.803 31.9098C128.059 32.5036 128.419 32.9646 128.882 33.293C129.35 33.6213 129.899 33.7855 130.529 33.7855C130.942 33.7855 131.318 33.7135 131.655 33.5696C131.993 33.4257 132.278 33.2188 132.512 32.9489C132.746 32.679 132.913 32.3551 133.012 31.9773H134.604C134.514 32.589 134.291 33.14 133.936 33.6303C133.585 34.1161 133.12 34.503 132.539 34.7908C131.964 35.0742 131.293 35.2159 130.529 35.2159ZM140.762 35.2159C139.826 35.2159 139.005 34.9933 138.299 34.5479C137.598 34.1026 137.049 33.4796 136.653 32.679C136.262 31.8783 136.066 30.9427 136.066 29.8722C136.066 28.7926 136.262 27.8503 136.653 27.0451C137.049 26.2399 137.598 25.6147 138.299 25.1694C139.005 24.7241 139.826 24.5014 140.762 24.5014C141.698 24.5014 142.516 24.7241 143.218 25.1694C143.924 25.6147 144.473 26.2399 144.864 27.0451C145.26 27.8503 145.458 28.7926 145.458 29.8722C145.458 30.9427 145.26 31.8783 144.864 32.679C144.473 33.4796 143.924 34.1026 143.218 34.5479C142.516 34.9933 141.698 35.2159 140.762 35.2159ZM140.762 33.7855C141.473 33.7855 142.057 33.6033 142.516 33.239C142.975 32.8746 143.315 32.3956 143.535 31.8018C143.755 31.2081 143.866 30.5649 143.866 29.8722C143.866 29.1795 143.755 28.534 143.535 27.9357C143.315 27.3375 142.975 26.8539 142.516 26.4851C142.057 26.1162 141.473 25.9318 140.762 25.9318C140.051 25.9318 139.466 26.1162 139.008 26.4851C138.549 26.8539 138.209 27.3375 137.989 27.9357C137.768 28.534 137.658 29.1795 137.658 29.8722C137.658 30.5649 137.768 31.2081 137.989 31.8018C138.209 32.3956 138.549 32.8746 139.008 33.239C139.466 33.6033 140.051 33.7855 140.762 33.7855ZM147.509 35V24.6364H149.047V26.2557H149.182C149.398 25.7024 149.746 25.2728 150.228 24.967C150.709 24.6566 151.287 24.5014 151.962 24.5014C152.645 24.5014 153.214 24.6566 153.669 24.967C154.128 25.2728 154.485 25.7024 154.742 26.2557H154.85C155.115 25.7204 155.513 25.2953 156.044 24.9805C156.575 24.6611 157.211 24.5014 157.953 24.5014C158.88 24.5014 159.638 24.7915 160.227 25.3718C160.816 25.9476 161.111 26.8449 161.111 28.0639V35H159.519V28.0639C159.519 27.2992 159.309 26.7527 158.891 26.4244C158.473 26.096 157.98 25.9318 157.413 25.9318C156.685 25.9318 156.12 26.1522 155.72 26.593C155.32 27.0294 155.119 27.5826 155.119 28.2528V35H153.5V27.902C153.5 27.3127 153.309 26.8382 152.927 26.4783C152.544 26.114 152.052 25.9318 151.449 25.9318C151.035 25.9318 150.648 26.042 150.288 26.2624C149.933 26.4828 149.645 26.7887 149.425 27.18C149.209 27.5669 149.101 28.0144 149.101 28.5227V35H147.509ZM163.642 38.8864V24.6364H165.181V26.2827H165.37C165.487 26.1027 165.648 25.8733 165.855 25.5945C166.067 25.3111 166.368 25.0592 166.759 24.8388C167.155 24.6139 167.691 24.5014 168.365 24.5014C169.238 24.5014 170.007 24.7196 170.673 25.1559C171.339 25.5922 171.858 26.2107 172.231 27.0114C172.605 27.812 172.791 28.7566 172.791 29.8452C172.791 30.9427 172.605 31.8941 172.231 32.6992C171.858 33.4999 171.341 34.1206 170.68 34.5614C170.018 34.9978 169.256 35.2159 168.392 35.2159C167.727 35.2159 167.194 35.1057 166.793 34.8853C166.393 34.6604 166.085 34.4062 165.869 34.1229C165.653 33.835 165.487 33.5966 165.37 33.4077H165.235V38.8864H163.642ZM165.208 29.8182C165.208 30.6009 165.322 31.2913 165.552 31.8896C165.781 32.4833 166.116 32.9489 166.557 33.2862C166.998 33.6191 167.538 33.7855 168.176 33.7855C168.842 33.7855 169.398 33.6101 169.843 33.2592C170.293 32.9039 170.63 32.4271 170.855 31.8288C171.084 31.2261 171.199 30.5559 171.199 29.8182C171.199 29.0895 171.087 28.4328 170.862 27.848C170.641 27.2588 170.306 26.7932 169.856 26.4513C169.411 26.105 168.851 25.9318 168.176 25.9318C167.529 25.9318 166.984 26.096 166.544 26.4244C166.103 26.7482 165.77 27.2025 165.545 27.7873C165.32 28.3675 165.208 29.0445 165.208 29.8182ZM181.372 30.7628V24.6364H182.964V35H181.372V33.2457H181.264C181.021 33.772 180.643 34.2196 180.13 34.5884C179.617 34.9528 178.97 35.1349 178.187 35.1349C177.539 35.1349 176.964 34.9933 176.46 34.7099C175.956 34.422 175.56 33.9902 175.272 33.4144C174.984 32.8342 174.84 32.1032 174.84 31.2216V24.6364H176.433V31.1136C176.433 31.8693 176.644 32.4721 177.067 32.9219C177.494 33.3717 178.039 33.5966 178.7 33.5966C179.096 33.5966 179.498 33.4954 179.908 33.293C180.321 33.0906 180.668 32.7802 180.947 32.3619C181.23 31.9435 181.372 31.4105 181.372 30.7628ZM187.093 21.1818V35H185.5V21.1818H187.093ZM196.97 26.9574L195.54 27.3622C195.45 27.1238 195.317 26.8922 195.142 26.6673C194.971 26.4379 194.737 26.2489 194.44 26.1005C194.143 25.9521 193.763 25.8778 193.3 25.8778C192.665 25.8778 192.137 26.024 191.714 26.3164C191.296 26.6043 191.087 26.9709 191.087 27.4162C191.087 27.812 191.231 28.1246 191.518 28.354C191.806 28.5835 192.256 28.7746 192.868 28.9276L194.406 29.3054C195.333 29.5303 196.023 29.8744 196.478 30.3377C196.932 30.7965 197.159 31.388 197.159 32.1122C197.159 32.706 196.988 33.2367 196.646 33.7045C196.309 34.1723 195.837 34.5412 195.229 34.8111C194.622 35.081 193.916 35.2159 193.111 35.2159C192.054 35.2159 191.179 34.9865 190.486 34.5277C189.793 34.0689 189.355 33.3987 189.17 32.517L190.682 32.1392C190.826 32.697 191.098 33.1153 191.498 33.3942C191.903 33.6731 192.432 33.8125 193.084 33.8125C193.826 33.8125 194.415 33.6551 194.852 33.3402C195.292 33.0208 195.513 32.6385 195.513 32.1932C195.513 31.8333 195.387 31.532 195.135 31.2891C194.883 31.0417 194.496 30.8572 193.974 30.7358L192.247 30.331C191.298 30.1061 190.601 29.7575 190.156 29.2852C189.715 28.8084 189.494 28.2124 189.494 27.4972C189.494 26.9124 189.658 26.3951 189.987 25.9453C190.32 25.4955 190.772 25.1424 191.343 24.886C191.919 24.6296 192.571 24.5014 193.3 24.5014C194.325 24.5014 195.13 24.7263 195.715 25.1761C196.304 25.6259 196.723 26.2197 196.97 26.9574ZM199.176 35V24.6364H200.768V35H199.176ZM199.986 22.9091C199.675 22.9091 199.408 22.8034 199.183 22.592C198.962 22.3806 198.852 22.1264 198.852 21.8295C198.852 21.5327 198.962 21.2785 199.183 21.0671C199.408 20.8557 199.675 20.75 199.986 20.75C200.296 20.75 200.561 20.8557 200.782 21.0671C201.007 21.2785 201.119 21.5327 201.119 21.8295C201.119 22.1264 201.007 22.3806 200.782 22.592C200.561 22.8034 200.296 22.9091 199.986 22.9091ZM211.779 24.6364L207.947 35H206.328L202.495 24.6364H204.222L207.083 32.8949H207.191L210.052 24.6364H211.779ZM216.235 35.2429C215.579 35.2429 214.983 35.1192 214.447 34.8718C213.912 34.6199 213.487 34.2578 213.172 33.7855C212.857 33.3087 212.7 32.733 212.7 32.0582C212.7 31.4645 212.817 30.9832 213.051 30.6143C213.285 30.241 213.597 29.9486 213.988 29.7372C214.38 29.5258 214.812 29.3684 215.284 29.2649C215.761 29.157 216.24 29.0715 216.721 29.0085C217.351 28.9276 217.861 28.8668 218.253 28.8263C218.649 28.7814 218.936 28.7071 219.116 28.6037C219.301 28.5002 219.393 28.3203 219.393 28.0639V28.0099C219.393 27.3442 219.211 26.8269 218.846 26.4581C218.487 26.0893 217.94 25.9048 217.207 25.9048C216.447 25.9048 215.851 26.0713 215.419 26.4041C214.987 26.737 214.683 27.0923 214.508 27.4702L212.997 26.9304C213.267 26.3007 213.626 25.8104 214.076 25.4595C214.53 25.1042 215.025 24.8568 215.561 24.7173C216.1 24.5734 216.631 24.5014 217.153 24.5014C217.486 24.5014 217.868 24.5419 218.3 24.6229C218.736 24.6993 219.157 24.859 219.562 25.1019C219.971 25.3448 220.311 25.7114 220.58 26.2017C220.85 26.692 220.985 27.3487 220.985 28.1719V35H219.393V33.5966H219.312C219.204 33.8215 219.024 34.0621 218.772 34.3185C218.52 34.5749 218.185 34.7931 217.767 34.973C217.349 35.1529 216.838 35.2429 216.235 35.2429ZM216.478 33.8125C217.108 33.8125 217.639 33.6888 218.07 33.4414C218.507 33.194 218.835 32.8746 219.056 32.4833C219.28 32.092 219.393 31.6804 219.393 31.2486V29.7912C219.325 29.8722 219.177 29.9464 218.948 30.0138C218.723 30.0768 218.462 30.133 218.165 30.1825C217.873 30.2275 217.587 30.268 217.308 30.304C217.034 30.3355 216.811 30.3625 216.64 30.3849C216.226 30.4389 215.839 30.5266 215.48 30.6481C215.124 30.765 214.836 30.9427 214.616 31.1811C214.4 31.415 214.292 31.7344 214.292 32.1392C214.292 32.6925 214.497 33.1108 214.906 33.3942C215.32 33.6731 215.844 33.8125 216.478 33.8125ZM223.512 35V24.6364H225.05V26.2557H225.185C225.401 25.7024 225.749 25.2728 226.231 24.967C226.712 24.6566 227.29 24.5014 227.965 24.5014C228.648 24.5014 229.217 24.6566 229.672 24.967C230.131 25.2728 230.488 25.7024 230.745 26.2557H230.853C231.118 25.7204 231.516 25.2953 232.047 24.9805C232.578 24.6611 233.214 24.5014 233.956 24.5014C234.883 24.5014 235.641 24.7915 236.23 25.3718C236.819 25.9476 237.114 26.8449 237.114 28.0639V35H235.522V28.0639C235.522 27.2992 235.312 26.7527 234.894 26.4244C234.476 26.096 233.983 25.9318 233.416 25.9318C232.688 25.9318 232.123 26.1522 231.723 26.593C231.323 27.0294 231.122 27.5826 231.122 28.2528V35H229.503V27.902C229.503 27.3127 229.312 26.8382 228.93 26.4783C228.547 26.114 228.055 25.9318 227.452 25.9318C227.038 25.9318 226.651 26.042 226.291 26.2624C225.936 26.4828 225.648 26.7887 225.428 27.18C225.212 27.5669 225.104 28.0144 225.104 28.5227V35H223.512ZM243.99 35.2159C242.992 35.2159 242.13 34.9955 241.406 34.5547C240.687 34.1094 240.131 33.4886 239.74 32.6925C239.353 31.8918 239.159 30.9607 239.159 29.8991C239.159 28.8376 239.353 27.902 239.74 27.0923C240.131 26.2782 240.675 25.6439 241.373 25.1896C242.074 24.7308 242.893 24.5014 243.829 24.5014C244.368 24.5014 244.901 24.5914 245.428 24.7713C245.954 24.9512 246.433 25.2436 246.865 25.6484C247.297 26.0488 247.641 26.5795 247.897 27.2408C248.153 27.902 248.282 28.7161 248.282 29.6832V30.358H240.293V28.9815H246.662C246.662 28.3968 246.545 27.875 246.311 27.4162C246.082 26.9574 245.754 26.5953 245.326 26.3299C244.904 26.0645 244.404 25.9318 243.829 25.9318C243.194 25.9318 242.646 26.0893 242.182 26.4041C241.723 26.7145 241.37 27.1193 241.123 27.6186C240.875 28.1179 240.752 28.6532 240.752 29.2244V30.142C240.752 30.9247 240.887 31.5882 241.157 32.1325C241.431 32.6722 241.811 33.0838 242.297 33.3672C242.783 33.6461 243.347 33.7855 243.99 33.7855C244.409 33.7855 244.787 33.727 245.124 33.6101C245.466 33.4886 245.76 33.3087 246.008 33.0703C246.255 32.8274 246.446 32.526 246.581 32.1662L248.12 32.598C247.958 33.1198 247.686 33.5786 247.303 33.9744C246.921 34.3658 246.449 34.6716 245.886 34.892C245.324 35.108 244.692 35.2159 243.99 35.2159ZM251.916 28.7656V35H250.324V24.6364H251.862V26.2557H251.997C252.24 25.7294 252.609 25.3066 253.104 24.9872C253.598 24.6634 254.237 24.5014 255.02 24.5014C255.722 24.5014 256.336 24.6454 256.862 24.9332C257.388 25.2166 257.797 25.6484 258.09 26.2287C258.382 26.8045 258.528 27.5331 258.528 28.4148V35H256.936V28.5227C256.936 27.7086 256.725 27.0743 256.302 26.62C255.879 26.1612 255.299 25.9318 254.561 25.9318C254.053 25.9318 253.598 26.042 253.198 26.2624C252.802 26.4828 252.49 26.8045 252.26 27.2273C252.031 27.6501 251.916 28.1629 251.916 28.7656ZM265.565 24.6364V25.9858H260.194V24.6364H265.565ZM261.76 22.1534H263.352V32.0312C263.352 32.4811 263.417 32.8184 263.548 33.0433C263.683 33.2637 263.854 33.4122 264.061 33.4886C264.272 33.5606 264.495 33.5966 264.729 33.5966C264.904 33.5966 265.048 33.5876 265.16 33.5696C265.273 33.5471 265.363 33.5291 265.43 33.5156L265.754 34.946C265.646 34.9865 265.496 35.027 265.302 35.0675C265.109 35.1125 264.864 35.1349 264.567 35.1349C264.117 35.1349 263.676 35.0382 263.244 34.8448C262.817 34.6514 262.462 34.3568 262.178 33.9609C261.899 33.5651 261.76 33.0658 261.76 32.4631V22.1534ZM271.814 35.2159C270.816 35.2159 269.954 34.9955 269.23 34.5547C268.51 34.1094 267.955 33.4886 267.564 32.6925C267.177 31.8918 266.983 30.9607 266.983 29.8991C266.983 28.8376 267.177 27.902 267.564 27.0923C267.955 26.2782 268.499 25.6439 269.196 25.1896C269.898 24.7308 270.717 24.5014 271.652 24.5014C272.192 24.5014 272.725 24.5914 273.251 24.7713C273.778 24.9512 274.257 25.2436 274.689 25.6484C275.12 26.0488 275.465 26.5795 275.721 27.2408C275.977 27.902 276.105 28.7161 276.105 29.6832V30.358H268.117V28.9815H274.486C274.486 28.3968 274.369 27.875 274.135 27.4162C273.906 26.9574 273.578 26.5953 273.15 26.3299C272.727 26.0645 272.228 25.9318 271.652 25.9318C271.018 25.9318 270.469 26.0893 270.006 26.4041C269.547 26.7145 269.194 27.1193 268.947 27.6186C268.699 28.1179 268.576 28.6532 268.576 29.2244V30.142C268.576 30.9247 268.711 31.5882 268.98 32.1325C269.255 32.6722 269.635 33.0838 270.121 33.3672C270.607 33.6461 271.171 33.7855 271.814 33.7855C272.233 33.7855 272.61 33.727 272.948 33.6101C273.29 33.4886 273.584 33.3087 273.832 33.0703C274.079 32.8274 274.27 32.526 274.405 32.1662L275.944 32.598C275.782 33.1198 275.51 33.5786 275.127 33.9744C274.745 34.3658 274.273 34.6716 273.71 34.892C273.148 35.108 272.516 35.2159 271.814 35.2159ZM287.457 35.2159C286.458 35.2159 285.597 34.9955 284.872 34.5547C284.153 34.1094 283.597 33.4886 283.206 32.6925C282.819 31.8918 282.626 30.9607 282.626 29.8991C282.626 28.8376 282.819 27.902 283.206 27.0923C283.597 26.2782 284.142 25.6439 284.839 25.1896C285.54 24.7308 286.359 24.5014 287.295 24.5014C287.834 24.5014 288.368 24.5914 288.894 24.7713C289.42 24.9512 289.899 25.2436 290.331 25.6484C290.763 26.0488 291.107 26.5795 291.363 27.2408C291.62 27.902 291.748 28.7161 291.748 29.6832V30.358H283.759V28.9815H290.129C290.129 28.3968 290.012 27.875 289.778 27.4162C289.548 26.9574 289.22 26.5953 288.793 26.3299C288.37 26.0645 287.87 25.9318 287.295 25.9318C286.66 25.9318 286.112 26.0893 285.648 26.4041C285.19 26.7145 284.837 27.1193 284.589 27.6186C284.342 28.1179 284.218 28.6532 284.218 29.2244V30.142C284.218 30.9247 284.353 31.5882 284.623 32.1325C284.897 32.6722 285.277 33.0838 285.763 33.3672C286.249 33.6461 286.813 33.7855 287.457 33.7855C287.875 33.7855 288.253 33.727 288.59 33.6101C288.932 33.4886 289.227 33.3087 289.474 33.0703C289.721 32.8274 289.913 32.526 290.048 32.1662L291.586 32.598C291.424 33.1198 291.152 33.5786 290.77 33.9744C290.387 34.3658 289.915 34.6716 289.353 34.892C288.79 35.108 288.158 35.2159 287.457 35.2159ZM301.131 26.9574L299.701 27.3622C299.611 27.1238 299.478 26.8922 299.303 26.6673C299.132 26.4379 298.898 26.2489 298.601 26.1005C298.304 25.9521 297.924 25.8778 297.461 25.8778C296.826 25.8778 296.298 26.024 295.875 26.3164C295.457 26.6043 295.247 26.9709 295.247 27.4162C295.247 27.812 295.391 28.1246 295.679 28.354C295.967 28.5835 296.417 28.7746 297.029 28.9276L298.567 29.3054C299.494 29.5303 300.184 29.8744 300.638 30.3377C301.093 30.7965 301.32 31.388 301.32 32.1122C301.32 32.706 301.149 33.2367 300.807 33.7045C300.47 34.1723 299.997 34.5412 299.39 34.8111C298.783 35.081 298.077 35.2159 297.272 35.2159C296.215 35.2159 295.34 34.9865 294.647 34.5277C293.954 34.0689 293.516 33.3987 293.331 32.517L294.843 32.1392C294.987 32.697 295.259 33.1153 295.659 33.3942C296.064 33.6731 296.592 33.8125 297.245 33.8125C297.987 33.8125 298.576 33.6551 299.012 33.3402C299.453 33.0208 299.674 32.6385 299.674 32.1932C299.674 31.8333 299.548 31.532 299.296 31.2891C299.044 31.0417 298.657 30.8572 298.135 30.7358L296.408 30.331C295.459 30.1061 294.762 29.7575 294.316 29.2852C293.876 28.8084 293.655 28.2124 293.655 27.4972C293.655 26.9124 293.819 26.3951 294.148 25.9453C294.481 25.4955 294.933 25.1424 295.504 24.886C296.08 24.6296 296.732 24.5014 297.461 24.5014C298.486 24.5014 299.291 24.7263 299.876 25.1761C300.465 25.6259 300.884 26.2197 301.131 26.9574ZM308.301 38.8864V24.6364H309.839V26.2827H310.028C310.145 26.1027 310.307 25.8733 310.514 25.5945C310.725 25.3111 311.026 25.0592 311.418 24.8388C311.814 24.6139 312.349 24.5014 313.024 24.5014C313.896 24.5014 314.665 24.7196 315.331 25.1559C315.997 25.5922 316.516 26.2107 316.89 27.0114C317.263 27.812 317.45 28.7566 317.45 29.8452C317.45 30.9427 317.263 31.8941 316.89 32.6992C316.516 33.4999 315.999 34.1206 315.338 34.5614C314.677 34.9978 313.914 35.2159 313.051 35.2159C312.385 35.2159 311.852 35.1057 311.452 34.8853C311.051 34.6604 310.743 34.4062 310.527 34.1229C310.311 33.835 310.145 33.5966 310.028 33.4077H309.893V38.8864H308.301ZM309.866 29.8182C309.866 30.6009 309.981 31.2913 310.21 31.8896C310.439 32.4833 310.775 32.9489 311.215 33.2862C311.656 33.6191 312.196 33.7855 312.835 33.7855C313.5 33.7855 314.056 33.6101 314.501 33.2592C314.951 32.9039 315.288 32.4271 315.513 31.8288C315.743 31.2261 315.857 30.5559 315.857 29.8182C315.857 29.0895 315.745 28.4328 315.52 27.848C315.3 27.2588 314.965 26.7932 314.515 26.4513C314.069 26.105 313.509 25.9318 312.835 25.9318C312.187 25.9318 311.643 26.096 311.202 26.4244C310.761 26.7482 310.428 27.2025 310.203 27.7873C309.978 28.3675 309.866 29.0445 309.866 29.8182ZM323.844 35.2159C322.845 35.2159 321.984 34.9955 321.26 34.5547C320.54 34.1094 319.985 33.4886 319.593 32.6925C319.206 31.8918 319.013 30.9607 319.013 29.8991C319.013 28.8376 319.206 27.902 319.593 27.0923C319.985 26.2782 320.529 25.6439 321.226 25.1896C321.928 24.7308 322.746 24.5014 323.682 24.5014C324.222 24.5014 324.755 24.5914 325.281 24.7713C325.807 24.9512 326.286 25.2436 326.718 25.6484C327.15 26.0488 327.494 26.5795 327.75 27.2408C328.007 27.902 328.135 28.7161 328.135 29.6832V30.358H320.146V28.9815H326.516C326.516 28.3968 326.399 27.875 326.165 27.4162C325.935 26.9574 325.607 26.5953 325.18 26.3299C324.757 26.0645 324.258 25.9318 323.682 25.9318C323.048 25.9318 322.499 26.0893 322.036 26.4041C321.577 26.7145 321.224 27.1193 320.976 27.6186C320.729 28.1179 320.605 28.6532 320.605 29.2244V30.142C320.605 30.9247 320.74 31.5882 321.01 32.1325C321.284 32.6722 321.665 33.0838 322.15 33.3672C322.636 33.6461 323.201 33.7855 323.844 33.7855C324.262 33.7855 324.64 33.727 324.977 33.6101C325.319 33.4886 325.614 33.3087 325.861 33.0703C326.109 32.8274 326.3 32.526 326.435 32.1662L327.973 32.598C327.811 33.1198 327.539 33.5786 327.157 33.9744C326.774 34.3658 326.302 34.6716 325.74 34.892C325.178 35.108 324.546 35.2159 323.844 35.2159ZM330.177 35V24.6364H331.716V26.2017H331.824C332.013 25.6889 332.354 25.2728 332.849 24.9535C333.344 24.6341 333.902 24.4744 334.522 24.4744C334.639 24.4744 334.786 24.4767 334.961 24.4812C335.136 24.4857 335.269 24.4924 335.359 24.5014V26.1207C335.305 26.1072 335.181 26.087 334.988 26.06C334.799 26.0285 334.599 26.0128 334.388 26.0128C333.884 26.0128 333.434 26.1185 333.038 26.3299C332.647 26.5368 332.336 26.8247 332.107 27.1935C331.882 27.5579 331.77 27.974 331.77 28.4418V35H330.177ZM336.867 24.6364H338.459V35.7557C338.459 36.3944 338.349 36.9477 338.128 37.4155C337.912 37.8833 337.584 38.2454 337.143 38.5018C336.707 38.7582 336.156 38.8864 335.49 38.8864C335.436 38.8864 335.382 38.8864 335.328 38.8864C335.274 38.8864 335.22 38.8864 335.166 38.8864V37.402C335.22 37.402 335.27 37.402 335.315 37.402C335.36 37.402 335.409 37.402 335.463 37.402C335.949 37.402 336.304 37.258 336.529 36.9702C336.754 36.6868 336.867 36.282 336.867 35.7557V24.6364ZM337.649 22.9091C337.339 22.9091 337.071 22.8034 336.846 22.592C336.626 22.3806 336.516 22.1264 336.516 21.8295C336.516 21.5327 336.626 21.2785 336.846 21.0671C337.071 20.8557 337.339 20.75 337.649 20.75C337.96 20.75 338.225 20.8557 338.445 21.0671C338.67 21.2785 338.783 21.5327 338.783 21.8295C338.783 22.1264 338.67 22.3806 338.445 22.592C338.225 22.8034 337.96 22.9091 337.649 22.9091ZM347.527 30.7628V24.6364H349.119V35H347.527V33.2457H347.419C347.176 33.772 346.798 34.2196 346.285 34.5884C345.772 34.9528 345.125 35.1349 344.342 35.1349C343.694 35.1349 343.119 34.9933 342.615 34.7099C342.111 34.422 341.715 33.9902 341.427 33.4144C341.139 32.8342 340.995 32.1032 340.995 31.2216V24.6364H342.588V31.1136C342.588 31.8693 342.799 32.4721 343.222 32.9219C343.649 33.3717 344.194 33.5966 344.855 33.5966C345.251 33.5966 345.653 33.4954 346.063 33.293C346.476 33.0906 346.823 32.7802 347.102 32.3619C347.385 31.9435 347.527 31.4105 347.527 30.7628ZM355.569 35.2159C354.705 35.2159 353.943 34.9978 353.282 34.5614C352.62 34.1206 352.103 33.4999 351.73 32.6992C351.356 31.8941 351.17 30.9427 351.17 29.8452C351.17 28.7566 351.356 27.812 351.73 27.0114C352.103 26.2107 352.623 25.5922 353.288 25.1559C353.954 24.7196 354.723 24.5014 355.596 24.5014C356.271 24.5014 356.804 24.6139 357.195 24.8388C357.591 25.0592 357.892 25.3111 358.099 25.5945C358.31 25.8733 358.475 26.1027 358.592 26.2827H358.726V21.1818H360.319V35H358.78V33.4077H358.592C358.475 33.5966 358.308 33.835 358.092 34.1229C357.876 34.4062 357.568 34.6604 357.168 34.8853C356.768 35.1057 356.235 35.2159 355.569 35.2159ZM355.785 33.7855C356.423 33.7855 356.963 33.6191 357.404 33.2862C357.845 32.9489 358.18 32.4833 358.409 31.8896C358.639 31.2913 358.753 30.6009 358.753 29.8182C358.753 29.0445 358.641 28.3675 358.416 27.7873C358.191 27.2025 357.858 26.7482 357.418 26.4244C356.977 26.096 356.432 25.9318 355.785 25.9318C355.11 25.9318 354.548 26.105 354.098 26.4513C353.653 26.7932 353.318 27.2588 353.093 27.848C352.872 28.4328 352.762 29.0895 352.762 29.8182C352.762 30.5559 352.874 31.2261 353.099 31.8288C353.329 32.4271 353.666 32.9039 354.111 33.2592C354.561 33.6101 355.119 33.7855 355.785 33.7855ZM363.076 35V24.6364H364.669V35H363.076ZM363.886 22.9091C363.576 22.9091 363.308 22.8034 363.083 22.592C362.863 22.3806 362.752 22.1264 362.752 21.8295C362.752 21.5327 362.863 21.2785 363.083 21.0671C363.308 20.8557 363.576 20.75 363.886 20.75C364.196 20.75 364.462 20.8557 364.682 21.0671C364.907 21.2785 365.019 21.5327 365.019 21.8295C365.019 22.1264 364.907 22.3806 364.682 22.592C364.462 22.8034 364.196 22.9091 363.886 22.9091ZM371.415 35.2159C370.444 35.2159 369.607 34.9865 368.905 34.5277C368.204 34.0689 367.664 33.4369 367.286 32.6317C366.908 31.8266 366.719 30.9067 366.719 29.8722C366.719 28.8196 366.913 27.8907 367.299 27.0856C367.691 26.2759 368.235 25.6439 368.932 25.1896C369.634 24.7308 370.453 24.5014 371.388 24.5014C372.117 24.5014 372.774 24.6364 373.358 24.9062C373.943 25.1761 374.422 25.554 374.796 26.0398C375.169 26.5256 375.401 27.0923 375.491 27.7401H373.898C373.777 27.2678 373.507 26.8494 373.089 26.4851C372.675 26.1162 372.117 25.9318 371.415 25.9318C370.795 25.9318 370.25 26.0937 369.782 26.4176C369.319 26.737 368.957 27.189 368.696 27.7738C368.44 28.354 368.312 29.0355 368.312 29.8182C368.312 30.6188 368.438 31.3161 368.689 31.9098C368.946 32.5036 369.306 32.9646 369.769 33.293C370.237 33.6213 370.786 33.7855 371.415 33.7855C371.829 33.7855 372.205 33.7135 372.542 33.5696C372.879 33.4257 373.165 33.2188 373.399 32.9489C373.633 32.679 373.799 32.3551 373.898 31.9773H375.491C375.401 32.589 375.178 33.14 374.823 33.6303C374.472 34.1161 374.006 34.503 373.426 34.7908C372.85 35.0742 372.18 35.2159 371.415 35.2159ZM377.438 35V24.6364H379.031V35H377.438ZM378.248 22.9091C377.938 22.9091 377.67 22.8034 377.445 22.592C377.225 22.3806 377.114 22.1264 377.114 21.8295C377.114 21.5327 377.225 21.2785 377.445 21.0671C377.67 20.8557 377.938 20.75 378.248 20.75C378.558 20.75 378.824 20.8557 379.044 21.0671C379.269 21.2785 379.381 21.5327 379.381 21.8295C379.381 22.1264 379.269 22.3806 379.044 22.592C378.824 22.8034 378.558 22.9091 378.248 22.9091ZM384.617 35.2429C383.96 35.2429 383.364 35.1192 382.829 34.8718C382.294 34.6199 381.868 34.2578 381.554 33.7855C381.239 33.3087 381.081 32.733 381.081 32.0582C381.081 31.4645 381.198 30.9832 381.432 30.6143C381.666 30.241 381.979 29.9486 382.37 29.7372C382.761 29.5258 383.193 29.3684 383.665 29.2649C384.142 29.157 384.621 29.0715 385.103 29.0085C385.732 28.9276 386.243 28.8668 386.634 28.8263C387.03 28.7814 387.318 28.7071 387.498 28.6037C387.682 28.5002 387.774 28.3203 387.774 28.0639V28.0099C387.774 27.3442 387.592 26.8269 387.228 26.4581C386.868 26.0893 386.322 25.9048 385.588 25.9048C384.828 25.9048 384.232 26.0713 383.8 26.4041C383.369 26.737 383.065 27.0923 382.89 27.4702L381.378 26.9304C381.648 26.3007 382.008 25.8104 382.458 25.4595C382.912 25.1042 383.407 24.8568 383.942 24.7173C384.482 24.5734 385.013 24.5014 385.534 24.5014C385.867 24.5014 386.25 24.5419 386.681 24.6229C387.118 24.6993 387.538 24.859 387.943 25.1019C388.352 25.3448 388.692 25.7114 388.962 26.2017C389.232 26.692 389.367 27.3487 389.367 28.1719V35H387.774V33.5966H387.694C387.586 33.8215 387.406 34.0621 387.154 34.3185C386.902 34.5749 386.567 34.7931 386.148 34.973C385.73 35.1529 385.22 35.2429 384.617 35.2429ZM384.86 33.8125C385.489 33.8125 386.02 33.6888 386.452 33.4414C386.888 33.194 387.217 32.8746 387.437 32.4833C387.662 32.092 387.774 31.6804 387.774 31.2486V29.7912C387.707 29.8722 387.559 29.9464 387.329 30.0138C387.104 30.0768 386.843 30.133 386.547 30.1825C386.254 30.2275 385.968 30.268 385.69 30.304C385.415 30.3355 385.193 30.3625 385.022 30.3849C384.608 30.4389 384.221 30.5266 383.861 30.6481C383.506 30.765 383.218 30.9427 382.997 31.1811C382.782 31.415 382.674 31.7344 382.674 32.1392C382.674 32.6925 382.878 33.1108 383.288 33.3942C383.701 33.6731 384.225 33.8125 384.86 33.8125ZM393.486 21.1818V35H391.893V21.1818H393.486ZM400.986 38.8864V24.6364H402.524V26.2827H402.713C402.83 26.1027 402.992 25.8733 403.199 25.5945C403.41 25.3111 403.712 25.0592 404.103 24.8388C404.499 24.6139 405.034 24.5014 405.709 24.5014C406.581 24.5014 407.351 24.7196 408.016 25.1559C408.682 25.5922 409.201 26.2107 409.575 27.0114C409.948 27.812 410.135 28.7566 410.135 29.8452C410.135 30.9427 409.948 31.8941 409.575 32.6992C409.201 33.4999 408.684 34.1206 408.023 34.5614C407.362 34.9978 406.599 35.2159 405.736 35.2159C405.07 35.2159 404.537 35.1057 404.137 34.8853C403.736 34.6604 403.428 34.4062 403.212 34.1229C402.996 33.835 402.83 33.5966 402.713 33.4077H402.578V38.8864H400.986ZM402.551 29.8182C402.551 30.6009 402.666 31.2913 402.895 31.8896C403.125 32.4833 403.46 32.9489 403.9 33.2862C404.341 33.6191 404.881 33.7855 405.52 33.7855C406.186 33.7855 406.741 33.6101 407.186 33.2592C407.636 32.9039 407.974 32.4271 408.198 31.8288C408.428 31.2261 408.543 30.5559 408.543 29.8182C408.543 29.0895 408.43 28.4328 408.205 27.848C407.985 27.2588 407.65 26.7932 407.2 26.4513C406.755 26.105 406.195 25.9318 405.52 25.9318C404.872 25.9318 404.328 26.096 403.887 26.4244C403.446 26.7482 403.113 27.2025 402.888 27.7873C402.664 28.3675 402.551 29.0445 402.551 29.8182ZM415.234 35.2429C414.577 35.2429 413.981 35.1192 413.446 34.8718C412.91 34.6199 412.485 34.2578 412.17 33.7855C411.855 33.3087 411.698 32.733 411.698 32.0582C411.698 31.4645 411.815 30.9832 412.049 30.6143C412.283 30.241 412.595 29.9486 412.987 29.7372C413.378 29.5258 413.81 29.3684 414.282 29.2649C414.759 29.157 415.238 29.0715 415.719 29.0085C416.349 28.9276 416.86 28.8668 417.251 28.8263C417.647 28.7814 417.935 28.7071 418.115 28.6037C418.299 28.5002 418.391 28.3203 418.391 28.0639V28.0099C418.391 27.3442 418.209 26.8269 417.845 26.4581C417.485 26.0893 416.938 25.9048 416.205 25.9048C415.445 25.9048 414.849 26.0713 414.417 26.4041C413.985 26.737 413.682 27.0923 413.506 27.4702L411.995 26.9304C412.265 26.3007 412.625 25.8104 413.074 25.4595C413.529 25.1042 414.024 24.8568 414.559 24.7173C415.099 24.5734 415.629 24.5014 416.151 24.5014C416.484 24.5014 416.866 24.5419 417.298 24.6229C417.734 24.6993 418.155 24.859 418.56 25.1019C418.969 25.3448 419.309 25.7114 419.579 26.2017C419.849 26.692 419.984 27.3487 419.984 28.1719V35H418.391V33.5966H418.31C418.202 33.8215 418.022 34.0621 417.77 34.3185C417.519 34.5749 417.183 34.7931 416.765 34.973C416.347 35.1529 415.836 35.2429 415.234 35.2429ZM415.476 33.8125C416.106 33.8125 416.637 33.6888 417.069 33.4414C417.505 33.194 417.833 32.8746 418.054 32.4833C418.279 32.092 418.391 31.6804 418.391 31.2486V29.7912C418.324 29.8722 418.175 29.9464 417.946 30.0138C417.721 30.0768 417.46 30.133 417.163 30.1825C416.871 30.2275 416.585 30.268 416.306 30.304C416.032 30.3355 415.809 30.3625 415.638 30.3849C415.225 30.4389 414.838 30.5266 414.478 30.6481C414.123 30.765 413.835 30.9427 413.614 31.1811C413.398 31.415 413.29 31.7344 413.29 32.1392C413.29 32.6925 413.495 33.1108 413.904 33.3942C414.318 33.6731 414.842 33.8125 415.476 33.8125ZM422.51 35V24.6364H424.048V26.2017H424.156C424.345 25.6889 424.687 25.2728 425.182 24.9535C425.677 24.6341 426.234 24.4744 426.855 24.4744C426.972 24.4744 427.118 24.4767 427.294 24.4812C427.469 24.4857 427.602 24.4924 427.692 24.5014V26.1207C427.638 26.1072 427.514 26.087 427.321 26.06C427.132 26.0285 426.932 26.0128 426.72 26.0128C426.216 26.0128 425.767 26.1185 425.371 26.3299C424.979 26.5368 424.669 26.8247 424.44 27.1935C424.215 27.5579 424.102 27.974 424.102 28.4418V35H422.51ZM432.249 35.2429C431.592 35.2429 430.996 35.1192 430.461 34.8718C429.926 34.6199 429.501 34.2578 429.186 33.7855C428.871 33.3087 428.713 32.733 428.713 32.0582C428.713 31.4645 428.83 30.9832 429.064 30.6143C429.298 30.241 429.611 29.9486 430.002 29.7372C430.393 29.5258 430.825 29.3684 431.298 29.2649C431.774 29.157 432.253 29.0715 432.735 29.0085C433.364 28.9276 433.875 28.8668 434.266 28.8263C434.662 28.7814 434.95 28.7071 435.13 28.6037C435.314 28.5002 435.407 28.3203 435.407 28.0639V28.0099C435.407 27.3442 435.224 26.8269 434.86 26.4581C434.5 26.0893 433.954 25.9048 433.221 25.9048C432.46 25.9048 431.864 26.0713 431.433 26.4041C431.001 26.737 430.697 27.0923 430.522 27.4702L429.01 26.9304C429.28 26.3007 429.64 25.8104 430.09 25.4595C430.544 25.1042 431.039 24.8568 431.574 24.7173C432.114 24.5734 432.645 24.5014 433.167 24.5014C433.499 24.5014 433.882 24.5419 434.314 24.6229C434.75 24.6993 435.17 24.859 435.575 25.1019C435.985 25.3448 436.324 25.7114 436.594 26.2017C436.864 26.692 436.999 27.3487 436.999 28.1719V35H435.407V33.5966H435.326C435.218 33.8215 435.038 34.0621 434.786 34.3185C434.534 34.5749 434.199 34.7931 433.781 34.973C433.362 35.1529 432.852 35.2429 432.249 35.2429ZM432.492 33.8125C433.122 33.8125 433.652 33.6888 434.084 33.4414C434.52 33.194 434.849 32.8746 435.069 32.4833C435.294 32.092 435.407 31.6804 435.407 31.2486V29.7912C435.339 29.8722 435.191 29.9464 434.961 30.0138C434.736 30.0768 434.475 30.133 434.179 30.1825C433.886 30.2275 433.601 30.268 433.322 30.304C433.047 30.3355 432.825 30.3625 432.654 30.3849C432.24 30.4389 431.853 30.5266 431.493 30.6481C431.138 30.765 430.85 30.9427 430.63 31.1811C430.414 31.415 430.306 31.7344 430.306 32.1392C430.306 32.6925 430.51 33.1108 430.92 33.3942C431.334 33.6731 431.858 33.8125 432.492 33.8125ZM446.081 21.1818V35H444.489V21.1818H446.081ZM451.668 35.2429C451.011 35.2429 450.415 35.1192 449.88 34.8718C449.344 34.6199 448.919 34.2578 448.604 33.7855C448.289 33.3087 448.132 32.733 448.132 32.0582C448.132 31.4645 448.249 30.9832 448.483 30.6143C448.717 30.241 449.029 29.9486 449.421 29.7372C449.812 29.5258 450.244 29.3684 450.716 29.2649C451.193 29.157 451.672 29.0715 452.153 29.0085C452.783 28.9276 453.294 28.8668 453.685 28.8263C454.081 28.7814 454.369 28.7071 454.549 28.6037C454.733 28.5002 454.825 28.3203 454.825 28.0639V28.0099C454.825 27.3442 454.643 26.8269 454.279 26.4581C453.919 26.0893 453.372 25.9048 452.639 25.9048C451.879 25.9048 451.283 26.0713 450.851 26.4041C450.419 26.737 450.116 27.0923 449.94 27.4702L448.429 26.9304C448.699 26.3007 449.059 25.8104 449.508 25.4595C449.963 25.1042 450.458 24.8568 450.993 24.7173C451.533 24.5734 452.063 24.5014 452.585 24.5014C452.918 24.5014 453.3 24.5419 453.732 24.6229C454.168 24.6993 454.589 24.859 454.994 25.1019C455.403 25.3448 455.743 25.7114 456.013 26.2017C456.283 26.692 456.418 27.3487 456.418 28.1719V35H454.825V33.5966H454.744C454.636 33.8215 454.456 34.0621 454.204 34.3185C453.953 34.5749 453.617 34.7931 453.199 34.973C452.781 35.1529 452.27 35.2429 451.668 35.2429ZM451.91 33.8125C452.54 33.8125 453.071 33.6888 453.503 33.4414C453.939 33.194 454.267 32.8746 454.488 32.4833C454.713 32.092 454.825 31.6804 454.825 31.2486V29.7912C454.758 29.8722 454.609 29.9464 454.38 30.0138C454.155 30.0768 453.894 30.133 453.597 30.1825C453.305 30.2275 453.019 30.268 452.74 30.304C452.466 30.3355 452.243 30.3625 452.072 30.3849C451.659 30.4389 451.272 30.5266 450.912 30.6481C450.557 30.765 450.269 30.9427 450.048 31.1811C449.832 31.415 449.724 31.7344 449.724 32.1392C449.724 32.6925 449.929 33.1108 450.338 33.3942C450.752 33.6731 451.276 33.8125 451.91 33.8125ZM471.249 26.9574L469.818 27.3622C469.728 27.1238 469.595 26.8922 469.42 26.6673C469.249 26.4379 469.015 26.2489 468.718 26.1005C468.421 25.9521 468.041 25.8778 467.578 25.8778C466.944 25.8778 466.415 26.024 465.992 26.3164C465.574 26.6043 465.365 26.9709 465.365 27.4162C465.365 27.812 465.509 28.1246 465.797 28.354C466.085 28.5835 466.535 28.7746 467.146 28.9276L468.685 29.3054C469.611 29.5303 470.302 29.8744 470.756 30.3377C471.21 30.7965 471.437 31.388 471.437 32.1122C471.437 32.706 471.267 33.2367 470.925 33.7045C470.587 34.1723 470.115 34.5412 469.508 34.8111C468.901 35.081 468.194 35.2159 467.389 35.2159C466.332 35.2159 465.457 34.9865 464.765 34.5277C464.072 34.0689 463.633 33.3987 463.449 32.517L464.96 32.1392C465.104 32.697 465.376 33.1153 465.777 33.3942C466.181 33.6731 466.71 33.8125 467.362 33.8125C468.104 33.8125 468.694 33.6551 469.13 33.3402C469.571 33.0208 469.791 32.6385 469.791 32.1932C469.791 31.8333 469.665 31.532 469.413 31.2891C469.161 31.0417 468.775 30.8572 468.253 30.7358L466.526 30.331C465.576 30.1061 464.879 29.7575 464.434 29.2852C463.993 28.8084 463.773 28.2124 463.773 27.4972C463.773 26.9124 463.937 26.3951 464.265 25.9453C464.598 25.4955 465.05 25.1424 465.621 24.886C466.197 24.6296 466.849 24.5014 467.578 24.5014C468.604 24.5014 469.409 24.7263 469.994 25.1761C470.583 25.6259 471.001 26.2197 471.249 26.9574ZM476.504 35.2429C475.847 35.2429 475.251 35.1192 474.716 34.8718C474.181 34.6199 473.756 34.2578 473.441 33.7855C473.126 33.3087 472.969 32.733 472.969 32.0582C472.969 31.4645 473.086 30.9832 473.319 30.6143C473.553 30.241 473.866 29.9486 474.257 29.7372C474.649 29.5258 475.08 29.3684 475.553 29.2649C476.03 29.157 476.509 29.0715 476.99 29.0085C477.62 28.9276 478.13 28.8668 478.521 28.8263C478.917 28.7814 479.205 28.7071 479.385 28.6037C479.57 28.5002 479.662 28.3203 479.662 28.0639V28.0099C479.662 27.3442 479.48 26.8269 479.115 26.4581C478.755 26.0893 478.209 25.9048 477.476 25.9048C476.715 25.9048 476.119 26.0713 475.688 26.4041C475.256 26.737 474.952 27.0923 474.777 27.4702L473.265 26.9304C473.535 26.3007 473.895 25.8104 474.345 25.4595C474.799 25.1042 475.294 24.8568 475.829 24.7173C476.369 24.5734 476.9 24.5014 477.422 24.5014C477.755 24.5014 478.137 24.5419 478.569 24.6229C479.005 24.6993 479.426 24.859 479.83 25.1019C480.24 25.3448 480.579 25.7114 480.849 26.2017C481.119 26.692 481.254 27.3487 481.254 28.1719V35H479.662V33.5966H479.581C479.473 33.8215 479.293 34.0621 479.041 34.3185C478.789 34.5749 478.454 34.7931 478.036 34.973C477.617 35.1529 477.107 35.2429 476.504 35.2429ZM476.747 33.8125C477.377 33.8125 477.907 33.6888 478.339 33.4414C478.776 33.194 479.104 32.8746 479.324 32.4833C479.549 32.092 479.662 31.6804 479.662 31.2486V29.7912C479.594 29.8722 479.446 29.9464 479.216 30.0138C478.992 30.0768 478.731 30.133 478.434 30.1825C478.141 30.2275 477.856 30.268 477.577 30.304C477.302 30.3355 477.08 30.3625 476.909 30.3849C476.495 30.4389 476.108 30.5266 475.748 30.6481C475.393 30.765 475.105 30.9427 474.885 31.1811C474.669 31.415 474.561 31.7344 474.561 32.1392C474.561 32.6925 474.766 33.1108 475.175 33.3942C475.589 33.6731 476.113 33.8125 476.747 33.8125ZM485.373 21.1818V35H483.78V21.1818H485.373ZM494.44 30.7628V24.6364H496.033V35H494.44V33.2457H494.333C494.09 33.772 493.712 34.2196 493.199 34.5884C492.686 34.9528 492.038 35.1349 491.256 35.1349C490.608 35.1349 490.032 34.9933 489.529 34.7099C489.025 34.422 488.629 33.9902 488.341 33.4144C488.053 32.8342 487.909 32.1032 487.909 31.2216V24.6364H489.502V31.1136C489.502 31.8693 489.713 32.4721 490.136 32.9219C490.563 33.3717 491.107 33.5966 491.769 33.5966C492.164 33.5966 492.567 33.4954 492.976 33.293C493.39 33.0906 493.737 32.7802 494.015 32.3619C494.299 31.9435 494.44 31.4105 494.44 30.7628ZM502.483 35.2159C501.619 35.2159 500.857 34.9978 500.195 34.5614C499.534 34.1206 499.017 33.4999 498.643 32.6992C498.27 31.8941 498.083 30.9427 498.083 29.8452C498.083 28.7566 498.27 27.812 498.643 27.0114C499.017 26.2107 499.536 25.5922 500.202 25.1559C500.868 24.7196 501.637 24.5014 502.51 24.5014C503.184 24.5014 503.717 24.6139 504.109 24.8388C504.505 25.0592 504.806 25.3111 505.013 25.5945C505.224 25.8733 505.388 26.1027 505.505 26.2827H505.64V21.1818H507.233V35H505.694V33.4077H505.505C505.388 33.5966 505.222 33.835 505.006 34.1229C504.79 34.4062 504.482 34.6604 504.082 34.8853C503.681 35.1057 503.148 35.2159 502.483 35.2159ZM502.699 33.7855C503.337 33.7855 503.877 33.6191 504.318 33.2862C504.759 32.9489 505.094 32.4833 505.323 31.8896C505.553 31.2913 505.667 30.6009 505.667 29.8182C505.667 29.0445 505.555 28.3675 505.33 27.7873C505.105 27.2025 504.772 26.7482 504.331 26.4244C503.891 26.096 503.346 25.9318 502.699 25.9318C502.024 25.9318 501.462 26.105 501.012 26.4513C500.566 26.7932 500.231 27.2588 500.006 27.848C499.786 28.4328 499.676 29.0895 499.676 29.8182C499.676 30.5559 499.788 31.2261 500.013 31.8288C500.243 32.4271 500.58 32.9039 501.025 33.2592C501.475 33.6101 502.033 33.7855 502.699 33.7855Z" fill="#C19771"/>
<path d="M557.5 53.3808C570.742 53.3808 581.476 42.6463 581.476 29.4047C581.476 16.163 570.742 5.42847 557.5 5.42847C544.258 5.42847 533.524 16.163 533.524 29.4047C533.524 42.6463 544.258 53.3808 557.5 53.3808Z" stroke="#C19771" stroke-width="3" stroke-miterlimit="10"/>
<path d="M549.295 21.605V37.202H545.533V25.1232H545.442L541.954 27.2554V23.9959L545.8 21.605H549.296H549.295Z" fill="#C19771"/>
<path d="M557.13 37.4158C555.917 37.4158 554.834 37.2217 553.882 36.8335C552.931 36.4454 552.184 35.9172 551.643 35.249C551.102 34.5817 550.832 33.8258 550.832 32.983C550.832 32.3379 550.987 31.7468 551.296 31.2089C551.606 30.6709 552.027 30.2225 552.557 29.8645C553.087 29.5065 553.68 29.277 554.335 29.175V29.0527C553.477 28.895 552.775 28.4971 552.23 27.8573C551.684 27.2174 551.411 26.4686 551.411 25.6108C551.411 24.7981 551.658 24.075 552.153 23.4405C552.649 22.806 553.326 22.3062 554.187 21.9402C555.049 21.5742 556.029 21.3916 557.13 21.3916C558.232 21.3916 559.213 21.5742 560.073 21.9402C560.934 22.3062 561.612 22.806 562.107 23.4405C562.602 24.075 562.85 24.799 562.85 25.6108C562.85 26.4739 562.574 27.2245 562.024 27.8608C561.473 28.498 560.773 28.895 559.925 29.0527V29.175C560.575 29.277 561.165 29.5065 561.696 29.8645C562.227 30.2225 562.648 30.6709 562.96 31.2089C563.272 31.7468 563.429 32.3388 563.429 32.983C563.429 33.8258 563.157 34.5808 562.614 35.249C562.071 35.9163 561.325 36.4445 560.379 36.8335C559.432 37.2217 558.35 37.4158 557.131 37.4158H557.13ZM557.13 34.7421C557.592 34.7421 557.999 34.6544 558.349 34.4798C558.699 34.3052 558.974 34.0597 559.175 33.7451C559.375 33.4305 559.475 33.0752 559.475 32.679C559.475 32.2829 559.373 31.9125 559.17 31.5979C558.967 31.2833 558.689 31.036 558.336 30.8553C557.984 30.6754 557.581 30.585 557.129 30.585C556.677 30.585 556.281 30.6754 555.926 30.8553C555.571 31.0352 555.291 31.2833 555.088 31.5979C554.885 31.9125 554.784 32.2732 554.784 32.679C554.784 33.0849 554.884 33.4288 555.084 33.7416C555.284 34.0535 555.561 34.299 555.914 34.4763C556.267 34.6544 556.672 34.743 557.129 34.743L557.13 34.7421ZM557.13 27.9264C557.526 27.9264 557.878 27.8449 558.185 27.6827C558.492 27.5205 558.733 27.2945 558.908 27.0048C559.082 26.715 559.17 26.388 559.17 26.022C559.17 25.656 559.082 25.3343 558.908 25.0551C558.732 24.776 558.493 24.5562 558.188 24.3967C557.883 24.2372 557.531 24.1565 557.129 24.1565C556.728 24.1565 556.38 24.2363 556.07 24.3967C555.76 24.5562 555.519 24.776 555.347 25.0551C555.174 25.3343 555.088 25.6569 555.088 26.022C555.088 26.3871 555.176 26.7141 555.351 27.0003C555.526 27.2874 555.768 27.5134 556.078 27.6783C556.388 27.8431 556.739 27.9255 557.129 27.9255L557.13 27.9264Z" fill="#C19771"/>
<path d="M564.537 30.0762V28.1461H574.238V30.0762H564.537ZM568.418 33.9648V24.2637H570.349V33.9648H568.418Z" fill="#C19771"/>
<defs>
<clipPath id="clip0_7_81">
<rect width="51" height="49" fill="white" transform="translate(0 4)"/>
</clipPath>
</defs>
</svg>
