<svg width="54" height="67" viewBox="0 0 54 67" fill="none" xmlns="http://www.w3.org/2000/svg">
<path fill-rule="evenodd" clip-rule="evenodd" d="M1.29034 29.301L0.976312 29.0237C-0.225302 27.8221 -0.317735 25.9313 0.699015 24.6237L0.976312 24.3096L24.3096 0.97631L24.4562 0.838319L24.6823 0.654449L25.0531 0.415571L25.4289 0.237418L25.78 0.119483L26.273 0.0230241L26.6667 0L26.9175 0.00929276L27.3358 0.0674669L27.7071 0.165794L28.0774 0.312245L28.4024 0.486651L28.7515 0.732295L29.0237 0.97631L52.357 24.3096C53.6588 25.6114 53.6588 27.7219 52.357 29.0237C51.1554 30.2253 49.2646 30.3177 47.957 29.301L47.643 29.0237L30 11.3867V63.3333C30 65.1743 28.5076 66.6667 26.6667 66.6667C24.8257 66.6667 23.3333 65.1743 23.3333 63.3333V11.38L5.69036 29.0237C4.48874 30.2253 2.59797 30.3177 1.29034 29.301Z" fill="url(#paint0_linear_3_355)"/>
<defs>
<linearGradient id="paint0_linear_3_355" x1="40.9039" y1="6.63432" x2="3.65647" y2="51.3348" gradientUnits="userSpaceOnUse">
<stop stop-color="#FF9C42"/>
<stop offset="1" stop-color="#98330D"/>
</linearGradient>
</defs>
</svg>
