<svg width="53" height="53" viewBox="0 0 53 53" fill="none" xmlns="http://www.w3.org/2000/svg">
<path d="M15.225 0H37.275C45.675 0 52.5 6.825 52.5 15.225V37.275C52.5 41.3129 50.8959 45.1855 48.0407 48.0407C45.1855 50.8959 41.3129 52.5 37.275 52.5H15.225C6.825 52.5 0 45.675 0 37.275V15.225C0 11.1871 1.60406 7.31454 4.4593 4.4593C7.31454 1.60406 11.1871 0 15.225 0ZM14.7 5.25C12.1937 5.25 9.79006 6.24562 8.01784 8.01784C6.24562 9.79006 5.25 12.1937 5.25 14.7V37.8C5.25 43.0238 9.47625 47.25 14.7 47.25H37.8C40.3063 47.25 42.7099 46.2544 44.4822 44.4822C46.2544 42.7099 47.25 40.3063 47.25 37.8V14.7C47.25 9.47625 43.0238 5.25 37.8 5.25H14.7ZM40.0312 9.1875C40.9015 9.1875 41.7361 9.5332 42.3514 10.1486C42.9668 10.7639 43.3125 11.5985 43.3125 12.4688C43.3125 13.339 42.9668 14.1736 42.3514 14.7889C41.7361 15.4043 40.9015 15.75 40.0312 15.75C39.161 15.75 38.3264 15.4043 37.7111 14.7889C37.0957 14.1736 36.75 13.339 36.75 12.4688C36.75 11.5985 37.0957 10.7639 37.7111 10.1486C38.3264 9.5332 39.161 9.1875 40.0312 9.1875ZM26.25 13.125C29.731 13.125 33.0694 14.5078 35.5308 16.9692C37.9922 19.4306 39.375 22.769 39.375 26.25C39.375 29.731 37.9922 33.0694 35.5308 35.5308C33.0694 37.9922 29.731 39.375 26.25 39.375C22.769 39.375 19.4306 37.9922 16.9692 35.5308C14.5078 33.0694 13.125 29.731 13.125 26.25C13.125 22.769 14.5078 19.4306 16.9692 16.9692C19.4306 14.5078 22.769 13.125 26.25 13.125ZM26.25 18.375C24.1614 18.375 22.1584 19.2047 20.6815 20.6815C19.2047 22.1584 18.375 24.1614 18.375 26.25C18.375 28.3386 19.2047 30.3416 20.6815 31.8185C22.1584 33.2953 24.1614 34.125 26.25 34.125C28.3386 34.125 30.3416 33.2953 31.8185 31.8185C33.2953 30.3416 34.125 28.3386 34.125 26.25C34.125 24.1614 33.2953 22.1584 31.8185 20.6815C30.3416 19.2047 28.3386 18.375 26.25 18.375Z" fill="#C19771"/>
</svg>
