<svg width="257" height="80" viewBox="0 0 257 80" fill="none" xmlns="http://www.w3.org/2000/svg">
<g clip-path="url(#clip0_3_335)">
<path d="M39.8165 0C17.8267 0 0 17.91 0 40.0026C0 62.0951 17.8267 80.0051 39.8165 80.0051C61.8063 80.0051 79.6329 62.0951 79.6329 40.0026C79.6329 17.91 61.8063 0 39.8165 0ZM59.9357 60.2158C59.9357 66.2777 55.0406 71.1957 49.0068 71.1957C45.1436 71.1957 41.7582 69.1784 39.8114 66.1398C37.8696 69.1784 34.4791 71.1957 30.6159 71.1957C24.5822 71.1957 19.6871 66.2777 19.6871 60.2158C13.6534 60.2158 8.7583 55.2978 8.7583 49.2359C8.7583 45.3546 10.7662 41.9534 13.7906 39.9975C10.7662 38.0466 8.7583 34.6403 8.7583 30.759C8.7583 24.6971 13.6534 19.7791 19.6871 19.7791C19.6871 13.7172 24.5822 8.79924 30.6159 8.79924C34.4791 8.79924 37.8645 10.8165 39.8114 13.8551C41.7532 10.8165 45.1436 8.79924 49.0068 8.79924C55.0406 8.79924 59.9357 13.7172 59.9357 19.7791C65.9694 19.7791 70.8645 24.6971 70.8645 30.759C70.8645 34.6403 68.8566 38.0415 65.8321 39.9975C68.8566 41.9483 70.8645 45.3546 70.8645 49.2359C70.8645 55.2978 65.9694 60.2158 59.9357 60.2158ZM51.218 40.0026C51.218 46.33 46.1145 51.4574 39.8165 51.4574C33.5184 51.4574 28.4149 46.33 28.4149 40.0026C28.4149 33.6751 33.5184 28.5477 39.8165 28.5477C46.1145 28.5477 51.218 33.6751 51.218 40.0026Z" fill="url(#paint0_linear_3_335)"/>
<path d="M135.533 59.6898C135.121 59.6898 134.785 59.3527 134.785 58.9391V32.6843H134.567L123.938 59.2199C123.826 59.5059 123.551 59.6898 123.247 59.6898H119.012C118.707 59.6898 118.433 59.5059 118.321 59.2199L107.692 32.6843H107.473V58.9391C107.473 59.3527 107.138 59.6898 106.726 59.6898H100.799C100.387 59.6898 100.052 59.3527 100.052 58.9391V20.4277C100.052 20.0141 100.387 19.677 100.799 19.677H109.202C109.507 19.677 109.786 19.866 109.898 20.1519L121.025 48.4035H121.244L132.371 20.1519C132.483 19.866 132.757 19.677 133.067 19.677H141.47C141.881 19.677 142.217 20.0141 142.217 20.4277V58.9391C142.217 59.3527 141.881 59.6898 141.47 59.6898H135.538H135.533Z" fill="white"/>
<path d="M145.506 29.9624H151.793C152.205 29.9624 152.541 30.2994 152.541 30.7131V35.3145H152.708C153.756 31.5455 156.267 29.4926 159.749 29.4926C160.389 29.4926 160.964 29.5589 161.441 29.6509C161.792 29.7224 162.041 30.0288 162.041 30.3863V35.9222C162.041 36.4022 161.604 36.7546 161.136 36.6525C160.547 36.5299 159.845 36.4533 159.118 36.4533C155.143 36.4533 152.825 38.8944 152.825 43.0821V58.9391C152.825 59.3528 152.49 59.6898 152.078 59.6898H145.516C145.104 59.6898 144.769 59.3528 144.769 58.9391V30.7182C144.769 30.3046 145.104 29.9675 145.516 29.9675L145.506 29.9624Z" fill="white"/>
<path d="M159.693 55.5583C159.693 53.061 161.65 51.0948 164.136 51.0948C166.621 51.0948 168.578 53.061 168.578 55.5583C168.578 58.0556 166.591 60.0218 164.136 60.0218C161.68 60.0218 159.693 58.0249 159.693 55.5583Z" fill="white"/>
<path d="M176.371 58.9391V20.4277C176.371 20.0141 176.706 19.677 177.118 19.677H193.704C201.182 19.677 205.874 23.5327 205.874 29.661C205.874 34.0428 202.615 37.7045 198.396 38.3377V38.5573C203.805 38.9761 207.78 42.9391 207.78 48.2349C207.78 55.2774 202.509 59.6847 194.009 59.6847H177.123C176.711 59.6847 176.376 59.3476 176.376 58.9339L176.371 58.9391ZM184.707 35.5647C184.707 35.9783 185.043 36.3154 185.454 36.3154H190.695C195.138 36.3154 197.68 34.3492 197.68 30.9633C197.68 27.5774 195.443 25.9177 191.554 25.9177H185.454C185.043 25.9177 184.707 26.2547 184.707 26.6684V35.5647ZM191.885 53.4491C196.688 53.4491 199.281 51.3961 199.281 47.571C199.281 43.7459 196.602 41.8309 191.692 41.8309H185.454C185.043 41.8309 184.707 42.1679 184.707 42.5816V52.6984C184.707 53.1121 185.043 53.4491 185.454 53.4491H191.885Z" fill="white"/>
<path d="M236.408 50.5943C236.891 50.5943 237.252 51.0438 237.14 51.5136C235.864 56.8248 230.745 60.3281 223.822 60.3281C214.713 60.3281 209.249 54.4756 209.249 44.9665C209.249 35.4574 214.769 29.3291 223.517 29.3291C232.265 29.3291 237.567 35.1816 237.567 44.2209V45.3546C237.567 46.0951 236.972 46.6927 236.235 46.6927H217.168V47.1931C217.168 51.437 219.847 54.3479 223.959 54.3479C226.714 54.3479 228.87 53.0661 229.754 51.0489C229.871 50.7782 230.14 50.6046 230.435 50.6046H236.413L236.408 50.5943ZM217.255 41.7185H229.81C229.642 37.919 227.187 35.3144 223.598 35.3144C220.01 35.3144 217.529 38.0058 217.249 41.7185H217.255Z" fill="white"/>
<path d="M247.728 19.774H241.166C240.753 19.774 240.419 20.1102 240.419 20.5248V34.8701C240.419 35.2847 240.753 35.6208 241.166 35.6208H247.728C248.141 35.6208 248.476 35.2847 248.476 34.8701V20.5248C248.476 20.1102 248.141 19.774 247.728 19.774Z" fill="white"/>
<path d="M251.952 53.6432C249.579 53.6432 248.476 52.5605 248.476 50.2879V42.4692C248.476 42.0556 248.14 41.7185 247.728 41.7185H241.166C240.754 41.7185 240.419 42.0556 240.419 42.4692V51.6719C240.419 57.4683 243.123 59.797 250.077 59.797C251.342 59.797 252.461 59.7153 253.284 59.5825C253.645 59.5264 253.909 59.2097 253.909 58.842V54.3428C253.909 53.9036 253.538 53.5615 253.101 53.5972C252.74 53.6279 252.339 53.6432 251.947 53.6432H251.952Z" fill="white"/>
<path d="M256.253 35.6208H249.223C248.81 35.6208 248.475 35.957 248.475 36.3716V40.9678C248.475 41.3824 248.81 41.7185 249.223 41.7185H256.253C256.665 41.7185 257 41.3824 257 40.9678V36.3716C257 35.957 256.665 35.6208 256.253 35.6208Z" fill="white"/>
</g>
<defs>
<linearGradient id="paint0_linear_3_335" x1="61.0743" y1="7.9617" x2="19.0511" y2="70.7084" gradientUnits="userSpaceOnUse">
<stop stop-color="#FF9C42"/>
<stop offset="1" stop-color="#98330D"/>
</linearGradient>
<clipPath id="clip0_3_335">
<rect width="257" height="80" fill="white"/>
</clipPath>
</defs>
</svg>
