<svg width="51" height="49" viewBox="0 0 51 49" fill="none" xmlns="http://www.w3.org/2000/svg">
<path d="M16.7583 36.0305C16.4388 35.8531 15.7351 36.048 15.3858 36.144C13.4611 36.6742 11.0151 37.586 9.12218 38.2947C7.85102 38.7702 6.63312 39.3933 5.39781 39.9462C4.52511 38.6588 3.60631 37.4148 2.87701 36.0325C-1.39126 27.935 -0.888328 18.2427 4.23933 10.6826C12.3907 -1.3338 29.3388 -3.64444 40.3193 5.95916C40.5283 6.14174 41.5864 7.07425 41.655 7.19391C41.7134 7.29396 41.782 7.3703 41.7544 7.49924C40.1821 10.338 39.0226 13.3821 38.2175 16.5334C38.112 16.946 37.7135 19.1865 37.606 19.3217C37.4984 19.4568 37.2167 19.4011 37.0467 19.4805C35.8913 20.0107 35.0923 22.7608 35.5031 23.9605C34.951 23.8676 34.4603 23.8089 33.9144 23.6531C30.3201 22.6308 25.006 17.0863 22.9246 13.9866C22.4176 13.2315 20.9447 10.3886 20.3178 10.1121C19.9071 9.9316 19.6991 10.0667 19.6336 10.5062C19.5188 11.2705 20.5462 13.6379 20.7675 14.6117C20.9559 15.441 21.0369 16.2694 21.1567 17.108C21.3022 17.2462 22.1544 17.9095 22.2896 17.7713L21.7764 13.7493C22.9298 15.963 23.8742 18.4985 25.7712 20.1974C26.8559 21.1692 27.9243 21.6591 29.1688 22.3482C29.2354 22.3853 29.4638 22.4266 29.306 22.5184C25.2549 21.1702 21.381 18.4964 18.1924 15.6587C17.0564 14.6478 13.5656 10.5949 12.486 10.369C11.6194 10.1874 11.4545 10.5093 11.5354 11.3262C11.645 12.4331 14.4373 16.2766 15.1594 17.5794C16.6877 20.3377 18.1883 23.6108 19.064 26.6445C19.8128 29.2378 20.3762 32.0178 20.3311 34.7287C20.285 34.8618 19.1511 35.1836 18.8715 35.3218C18.5601 35.4766 17.9691 35.8335 17.6812 36.0315C17.67 35.9521 17.7273 35.8293 17.629 35.8242C17.5839 35.8211 16.8044 36.014 16.7594 36.0315L16.7583 36.0305ZM17.9834 27.2645C16.1622 27.8927 14.0388 28.492 12.317 29.3399C11.8663 29.5617 10.8594 30.03 11.1749 30.6665C11.3254 30.9718 12.274 30.8934 12.6089 30.8707C13.6199 30.8027 14.7681 30.4984 15.7986 30.3694C16.6907 30.258 17.6034 30.2106 18.5007 30.1497C18.6379 30.0115 18.0479 27.6431 17.9844 27.2635L17.9834 27.2645Z" fill="#C19771"/>
<path d="M17.68 36.0304C16.9087 36.5606 16.0933 37.457 16.036 38.4576C15.9704 39.615 17.1596 40.1937 18.1255 39.6253C19.0915 39.0569 19.2656 37.1857 19.9068 36.8804C20.6924 36.507 23.1395 36.05 24.1116 35.854C30.2553 34.6203 37.026 34.3325 43.2056 35.4414C43.5231 35.4981 45.837 35.9386 45.8452 36.0809C42.7354 41.9834 37.1315 46.4489 30.7101 48.1726C23.1743 50.1965 14.9154 48.4604 8.92424 43.4543C8.66509 43.2377 7.52197 42.2691 7.43695 42.0628C7.36627 41.8905 7.50353 41.9235 7.56704 41.8874C8.75932 41.1901 10.2036 40.5207 11.4645 39.9317C12.0688 39.649 13.9679 39.0249 14.3326 38.7196C14.3981 38.6649 14.6911 37.751 14.9144 37.4518C15.1715 37.1083 16.3781 36.1861 16.7571 36.0304C16.8011 36.0118 17.5816 35.82 17.6267 35.823C17.7261 35.8292 17.6677 35.951 17.6789 36.0304H17.68Z" fill="#C19771"/>
<path d="M46.3573 35.101C45.1486 34.7967 43.9236 34.5161 42.6923 34.3088C41.1631 34.0509 36.5721 33.7796 35.6503 32.6336C35.1525 32.0147 36.4154 31.4195 36.8364 31.0285C37.9386 30.0032 38.6597 29.0686 36.5281 28.8076C36.7104 28.5611 37.0187 28.3362 37.1878 28.0804C37.5104 27.5914 37.8535 26.9106 37.6538 26.333C38.844 26.2628 41.2133 25.0415 41.581 23.8408C41.8299 23.0279 41.3239 21.8705 40.8291 21.2269C40.572 20.8926 39.6993 20.3387 39.855 19.9426C40.0578 19.4248 41.8309 17.2957 42.299 16.7758C43.0652 15.9248 44.2667 14.7653 45.1302 14.0051C45.2388 13.9102 46.0039 13.2985 46.0521 13.3356C46.8541 15.0119 47.5475 16.7407 47.9921 18.5531C48.874 22.1439 48.9508 26.1411 48.1734 29.7566C47.776 31.6041 47.1153 33.3794 46.3573 35.101Z" fill="#C19771"/>
<path d="M41.9957 16.0568C41.4753 16.6386 40.9181 17.3194 40.4224 17.929C40.1581 18.254 39.3366 19.598 39.0344 19.63C38.8244 19.6517 38.385 19.5155 38.3666 19.269C38.3328 18.8027 38.8449 16.9666 38.9924 16.3869C39.4698 14.5136 40.1263 12.5527 40.913 10.7908C41.0513 10.4813 42.1627 8.07373 42.3153 8.07373C42.5611 8.07373 44.0095 10.0171 44.2492 10.3555C44.4509 10.6412 45.6279 12.3917 45.6145 12.563C44.3588 13.6677 43.1142 14.8066 41.9957 16.0558V16.0568Z" fill="#C19771"/>
<path d="M21.9819 34.5864L21.4697 30.2539L26.4161 30.585C27.0348 30.9667 27.7876 31.9054 27.3974 32.6646C26.6517 34.116 23.4395 34.5389 21.9809 34.5864H21.9819Z" fill="#C19771"/>
<path d="M35.9084 30.259C36.1778 30.6345 34.1999 32.2592 33.8997 32.5593C33.7113 32.7481 33.1643 33.5424 32.9963 33.563L29.7595 33.6125C29.4911 32.5531 28.8274 31.7073 28.2302 30.8202C29.2207 30.6541 30.244 30.6881 31.2386 30.5499C32.3776 30.391 33.7164 29.8289 34.8257 29.9557C34.9701 29.9722 35.8756 30.2136 35.9084 30.259Z" fill="#C19771"/>
<path d="M20.4855 21.5498C21.7096 22.8846 23.1559 24.0729 24.7497 24.9405L20.5501 26.2299C20.1916 24.7414 19.5637 23.3395 19.0628 21.8985L16.6577 16.7397C18.0047 18.2644 19.1007 20.0376 20.4855 21.5488V21.5498Z" fill="#C19771"/>
<path d="M43.4216 5.15444C43.0437 4.84498 42.7067 4.18583 42.6739 3.68863C42.5213 1.38521 45.6259 0.653854 46.5529 2.56942C47.5649 4.65931 45.0329 6.47275 43.4216 5.15444Z" fill="#C19771"/>
<path d="M50.6275 11.3416C50.5363 11.4334 50.1993 11.6366 50.0774 11.6645C47.7431 12.1926 47.6642 8.5059 49.9719 8.92573C50.9993 9.11244 51.3261 10.6381 50.6275 11.3416Z" fill="#C19771"/>
<path d="M36.8354 21.4859C36.9276 21.3662 37.2369 21.8397 37.4264 21.8768C37.7921 21.949 38.1434 21.6932 38.166 21.3219C38.1834 21.0382 37.958 20.9175 37.9632 20.6606C40.484 20.8453 38.7468 24.2917 37.1919 22.8289C36.9471 22.5989 36.6664 21.7066 36.8364 21.4859H36.8354Z" fill="#C19771"/>
</svg>
