<svg width="57" height="57" viewBox="0 0 57 57" fill="none" xmlns="http://www.w3.org/2000/svg">
<path d="M28.4999 53.3808C41.7416 53.3808 52.4761 42.6463 52.4761 29.4047C52.4761 16.163 41.7416 5.42847 28.4999 5.42847C15.2582 5.42847 4.52368 16.163 4.52368 29.4047C4.52368 42.6463 15.2582 53.3808 28.4999 53.3808Z" stroke="#C19771" stroke-width="3" stroke-miterlimit="10"/>
<path d="M20.2951 21.605V37.202H16.5332V25.1232H16.4419L12.9539 27.2554V23.9959L16.7999 21.605H20.296H20.2951Z" fill="#C19771"/>
<path d="M28.1302 37.4158C26.917 37.4158 25.8341 37.2217 24.8823 36.8335C23.9305 36.4454 23.1844 35.9172 22.6429 35.249C22.1023 34.5817 21.832 33.8258 21.832 32.983C21.832 32.3379 21.9871 31.7468 22.2964 31.2089C22.6057 30.6709 23.0266 30.2225 23.5566 29.8645C24.0874 29.5065 24.6803 29.277 25.3352 29.175V29.0527C24.4773 28.895 23.7755 28.4971 23.2296 27.8573C22.6837 27.2174 22.4107 26.4686 22.4107 25.6108C22.4107 24.7981 22.658 24.075 23.1533 23.4405C23.6487 22.806 24.3258 22.3062 25.1872 21.9402C26.0485 21.5742 27.0287 21.3916 28.1302 21.3916C29.2317 21.3916 30.2128 21.5742 31.0733 21.9402C31.9338 22.3062 32.6117 22.806 33.1071 23.4405C33.6025 24.075 33.8497 24.799 33.8497 25.6108C33.8497 26.4739 33.5741 27.2245 33.0238 27.8608C32.4726 28.498 31.7734 28.895 30.9253 29.0527V29.175C31.5748 29.277 32.1651 29.5065 32.6959 29.8645C33.2267 30.2225 33.6477 30.6709 33.9605 31.2089C34.2724 31.7468 34.4293 32.3388 34.4293 32.983C34.4293 33.8258 34.1572 34.5808 33.614 35.249C33.0707 35.9163 32.3255 36.4445 31.379 36.8335C30.4317 37.2217 29.3496 37.4158 28.1311 37.4158H28.1302ZM28.1302 34.7421C28.5919 34.7421 28.9987 34.6544 29.3487 34.4798C29.6988 34.3052 29.9744 34.0597 30.1747 33.7451C30.3749 33.4305 30.4751 33.0752 30.4751 32.679C30.4751 32.2829 30.3732 31.9125 30.1702 31.5979C29.9673 31.2833 29.689 31.036 29.3363 30.8553C28.9836 30.6754 28.5813 30.585 28.1293 30.585C27.6774 30.585 27.2812 30.6754 26.9259 30.8553C26.5705 31.0352 26.2914 31.2833 26.0884 31.5979C25.8855 31.9125 25.7836 32.2732 25.7836 32.679C25.7836 33.0849 25.8837 33.4288 26.084 33.7416C26.2843 34.0535 26.5608 34.299 26.9144 34.4763C27.2671 34.6544 27.672 34.743 28.1293 34.743L28.1302 34.7421ZM28.1302 27.9264C28.5263 27.9264 28.8782 27.8449 29.1848 27.6827C29.4923 27.5205 29.7333 27.2945 29.9079 27.0048C30.0825 26.715 30.1702 26.388 30.1702 26.022C30.1702 25.656 30.0825 25.3343 29.9079 25.0551C29.7324 24.776 29.4932 24.5562 29.1883 24.3967C28.8835 24.2372 28.5308 24.1565 28.1293 24.1565C27.7279 24.1565 27.3805 24.2363 27.0703 24.3967C26.7602 24.5562 26.5191 24.776 26.3472 25.0551C26.1744 25.3343 26.0884 25.6569 26.0884 26.022C26.0884 26.3871 26.1762 26.7141 26.3507 27.0003C26.5262 27.2874 26.7681 27.5134 27.0783 27.6783C27.3876 27.8431 27.7385 27.9255 28.1293 27.9255L28.1302 27.9264Z" fill="#C19771"/>
<path d="M35.5369 30.0762V28.1461H45.238V30.0762H35.5369ZM39.4184 33.9648V24.2637H41.3485V33.9648H39.4184Z" fill="#C19771"/>
</svg>
