<svg width="71" height="71" viewBox="0 0 71 71" fill="none" xmlns="http://www.w3.org/2000/svg">
<path d="M35.4999 69.864C34.3497 69.8738 33.2193 69.5649 32.2339 68.9715L19.9205 61.77C15.3108 59.192 11.4633 55.4428 8.76693 50.9013C6.07054 46.3599 4.62079 41.1871 4.56421 35.9058V16.2286C4.56475 14.9026 4.97136 13.6086 5.72932 12.5206C6.48729 11.4326 7.56027 10.6028 8.80392 10.1429L33.2685 1.15632C34.7094 0.628882 36.2905 0.628882 37.7314 1.15632L62.1959 10.1429C63.4396 10.6028 64.5126 11.4326 65.2705 12.5206C66.0285 13.6086 66.4351 14.9026 66.4356 16.2286V35.9058C66.3791 41.1871 64.9293 46.3599 62.2329 50.9013C59.5365 55.4428 55.6891 59.192 51.0794 61.77L38.7659 68.9715C37.7806 69.5649 36.6501 69.8738 35.4999 69.864ZM35.4999 5.84232C35.339 5.81302 35.174 5.81302 35.0131 5.84232L10.5485 14.8695C10.2729 14.9715 10.0365 15.1577 9.87262 15.4016C9.70878 15.6456 9.62587 15.9349 9.63564 16.2286V35.9058C9.69446 40.3002 10.9129 44.6012 13.1678 48.3735C15.4226 52.1458 18.6338 55.2556 22.4765 57.3883L34.7899 64.61C35.0077 64.729 35.2518 64.7913 35.4999 64.7913C35.748 64.7913 35.9922 64.729 36.2099 64.61L48.5234 57.3883C52.366 55.2556 55.5772 52.1458 57.8321 48.3735C60.0869 44.6012 61.3054 40.3002 61.3642 35.9058V16.2286C61.3655 15.9418 61.2786 15.6615 61.1153 15.4256C60.9521 15.1898 60.7203 15.0098 60.4514 14.91L35.9868 5.92346C35.8308 5.86693 35.6658 5.83943 35.4999 5.84232Z" fill="url(#paint0_linear_3_339)"/>
<path d="M33.2686 45.3385C32.67 45.3346 32.0905 45.1272 31.6254 44.7502L22.9634 37.4474C22.4469 37.0143 22.1236 36.3938 22.0647 35.7223C22.0057 35.0508 22.2159 34.3835 22.649 33.867C23.0821 33.3505 23.7026 33.0272 24.3741 32.9682C25.0456 32.9093 25.7129 33.1194 26.2294 33.5525L33.0251 39.2731L44.6286 26.4931C45.0805 25.9928 45.7127 25.6924 46.386 25.6582C47.0594 25.624 47.7188 25.8586 48.2191 26.3105C48.7195 26.7625 49.0198 27.3946 49.0541 28.068C49.0883 28.7414 48.8536 29.4008 48.4017 29.9011L35.2566 44.5068C35.0049 44.7808 34.6969 44.9969 34.3537 45.1405C34.0105 45.2841 33.6403 45.3516 33.2686 45.3385Z" fill="url(#paint1_linear_3_339)"/>
<defs>
<linearGradient id="paint0_linear_3_339" x1="52.0164" y1="7.63757" x2="14.4116" y2="58.1455" gradientUnits="userSpaceOnUse">
<stop stop-color="#FF9C42"/>
<stop offset="1" stop-color="#98330D"/>
</linearGradient>
<linearGradient id="paint1_linear_3_339" x1="42.7644" y1="27.6139" x2="33.9726" y2="45.705" gradientUnits="userSpaceOnUse">
<stop stop-color="#FF9C42"/>
<stop offset="1" stop-color="#98330D"/>
</linearGradient>
</defs>
</svg>
