<svg width="44" height="51" viewBox="0 0 44 51" fill="none" xmlns="http://www.w3.org/2000/svg">
<path d="M34.7283 7.8725C32.8205 5.69368 31.7689 2.89607 31.7692 0H23.1429V34.6167C23.0778 36.4904 22.2873 38.2656 20.9384 39.5677C19.5894 40.8698 17.7874 41.597 15.9125 41.5958C11.9483 41.5958 8.65417 38.3575 8.65417 34.3375C8.65417 29.5358 13.2883 25.9346 18.0621 27.4142V18.5925C8.43083 17.3083 0 24.79 0 34.3375C0 43.6338 7.705 50.25 15.8846 50.25C24.6504 50.25 31.7692 43.1313 31.7692 34.3375V16.7779C35.2671 19.29 39.4668 20.6378 43.7733 20.6304V12.0042C43.7733 12.0042 38.525 12.2554 34.7283 7.8725Z" fill="#C19771"/>
</svg>
